{"title":"Powder Blue 2009 DVDrip English Klam","uid":6669497,"size":1726828919,"categoryP":"video","categoryS":"movies","magnet":"?xt=urn:btih:c76f0dd932c56f9f6d4f64d77a03c81d6ed82d6a&amp;dn=Powder+Blue+2009+DVDrip+English+Klam&amp;tr=udp%3A%2F%2Ftracker.openbittorrent.com%3A80&amp;tr=udp%3A%2F%2Fopen.demonii.com%3A1337&amp;tr=udp%3A%2F%2Ftracker.coppersurfer.tk%3A6969&amp;tr=udp%3A%2F%2Fexodus.desync.com%3A6969","seeders":0,"leechers":0,"uploader":"Klambake","files":-1,"time":1315820843,"description":"With: Jessica Biel, Ray Liotta and Forest Whitaker\n\nEen stripper (Jessica Biel), een ex-gevangene (Ray Liotta), een begrafenisondernemer (Eddy Redmayne) en een priester (Forest Whitaker) met zelfmoordneigingen komen op kerstavond bij elkaar dankzij een mix van gebeurtenissen. Deze vier bijzondere mensen delen hun levensgebeurtenissen met elkaar en komen zo dichter tot elkaar. Ondertussen wordt de begrafenisondernemer verliefd op de stripper en wordt de ex-gevangene geconfronteerd met zijn oude werkgever.\n\nFour Los Angelenos -- a mortician, an ex-con, a suicidal ex-priest, and a stripper -- are brought together on Christmas Eve by a mixture of circumstances. \n\n------------------ Dutch Friends ------------------\nYou can find my Friends at: http://www.Film-Test.nl \n------ They got my dutchs subs ---- and more ------\n\nGeneral:\n\nComplete name                    : Powder Blue\\Powder Blue.avi\nFormat                           : AVI\nFormat/Info                      : Audio Video Interleave\nFile size                        : 1.61 GiB\nDuration                         : 1h 41mn\nOverall bit rate                 : 2 260 Kbps\n\nVideo:\n\nFormat                           : MPEG-4 Visual\nFormat profile                   : Simple@L3\nFormat settings, BVOP            : No\nFormat settings, QPel            : No\nFormat settings, GMC             : No warppoints\nFormat settings, Matrix          : Default (H.263)\nCodec ID                         : XVID\nCodec ID/Hint                    : XviD\nDuration                         : 1h 41mn\nBit rate                         : 1 802 Kbps\nWidth                            : 720 pixels\nHeight                           : 304 pixels\nDisplay aspect ratio             : 2.35:1\nFrame rate                       : 25.000 fps\nColor space                      : YUV\nChroma subsampling               : 4:2:0\nBit depth                        : 8 bits\nScan type                        : Progressive\nBits/(Pixel*Frame)               : 0.329\nStream size                      : 1.28 GiB (80%)\nWriting library                  : XviD 1.1.2 (UTC 2006-11-01)\n\nAudio:\n\nFormat                           : AC-3\nFormat/Info                      : Audio Coding 3\nMode extension                   : CM (complete main)\nCodec ID                         : 2000\nDuration                         : 1h 41mn\nBit rate mode                    : Constant\nBit rate                         : 448 Kbps\nChannel(s)                       : 6 channels\nChannel positions                : Front: L C R, Side: L R, LFE\nSampling rate                    : 48.0 KHz\nBit depth                        : 16 bits\nStream size                      : 326 MiB (20%)\nAlignment                        : Aligned on interleaves\nInterleave, duration             : 32 ms (0.80 video frame)\nInterleave, preload duration     : 1600 ms\n\n","torrent":{"xt":"urn:btih:c76f0dd932c56f9f6d4f64d77a03c81d6ed82d6a","amp;dn":"Powder+Blue+2009+DVDrip+English+Klam","amp;tr":["udp%3A%2F%2Ftracker.openbittorrent.com%3A80","udp%3A%2F%2Fopen.demonii.com%3A1337","udp%3A%2F%2Ftracker.coppersurfer.tk%3A6969","udp%3A%2F%2Fexodus.desync.com%3A6969"],"infoHash":"c76f0dd932c56f9f6d4f64d77a03c81d6ed82d6a","infoHashBuffer":{"type":"Buffer","data":[199,111,13,217,50,197,111,159,109,79,100,215,122,3,200,29,110,216,45,106]},"announce":[],"urlList":[]}}